<svg width="512" height="512" viewBox="0 0 512 512" fill="none" xmlns="http://www.w3.org/2000/svg">
<path d="M394.105 0H117.895C86.6544 0.0888776 56.7191 12.5384 34.6287 34.6287C12.5384 56.7191 0.0888776 86.6544 0 117.895L0 394.105C0.0888776 425.346 12.5384 455.281 34.6287 477.371C56.7191 499.462 86.6544 511.911 117.895 512H394.105C425.346 511.911 455.281 499.462 477.371 477.371C499.462 455.281 511.911 425.346 512 394.105V117.895C511.911 86.6544 499.462 56.7191 477.371 34.6287C455.281 12.5384 425.346 0.0888776 394.105 0V0ZM361.128 278.063H283.419C282.821 278.059 282.227 278.173 281.673 278.4C281.12 278.627 280.617 278.962 280.193 279.385C279.77 279.808 279.436 280.311 279.209 280.865C278.982 281.419 278.867 282.012 278.872 282.611V360.421C278.872 366.487 276.462 372.304 272.173 376.594C267.883 380.883 262.066 383.293 256 383.293C249.934 383.293 244.117 380.883 239.827 376.594C235.538 372.304 233.128 366.487 233.128 360.421V282.611C233.133 282.012 233.018 281.419 232.791 280.865C232.564 280.311 232.23 279.808 231.807 279.385C231.383 278.962 230.88 278.627 230.327 278.4C229.773 278.173 229.179 278.059 228.581 278.063H150.872C147.868 278.063 144.894 277.472 142.119 276.322C139.344 275.173 136.823 273.488 134.699 271.364C132.575 269.24 130.89 266.719 129.741 263.944C128.592 261.169 128 258.195 128 255.192C128 252.188 128.592 249.214 129.741 246.439C130.89 243.664 132.575 241.143 134.699 239.019C136.823 236.895 139.344 235.21 142.119 234.061C144.894 232.912 147.868 232.32 150.872 232.32H228.581C229.179 232.324 229.773 232.21 230.327 231.983C230.88 231.756 231.383 231.421 231.807 230.998C232.23 230.575 232.564 230.072 232.791 229.518C233.018 228.964 233.133 228.371 233.128 227.773V150.063C233.128 143.997 235.538 138.18 239.827 133.891C244.117 129.601 249.934 127.192 256 127.192C262.066 127.192 267.883 129.601 272.173 133.891C276.462 138.18 278.872 143.997 278.872 150.063V227.773C278.853 228.379 278.958 228.984 279.179 229.549C279.4 230.115 279.732 230.63 280.157 231.064C280.581 231.498 281.089 231.842 281.65 232.075C282.21 232.308 282.812 232.426 283.419 232.421H361.128C367.194 232.421 373.012 234.831 377.301 239.12C381.59 243.409 384 249.227 384 255.293C384 261.359 381.59 267.176 377.301 271.465C373.012 275.755 367.194 278.164 361.128 278.164V278.063Z" fill="white"/>
</svg>
