<svg width="759" height="680" viewBox="0 0 759 680" fill="none" xmlns="http://www.w3.org/2000/svg">
<g clip-path="url(#clip0_304_1871)">
<path d="M605.665 112.083C601.724 155.507 590.496 201.294 572.887 245.473C551.112 300.106 521.361 348.226 486.851 384.632L484.936 382.962C519.279 346.732 548.895 298.823 570.579 244.416C590.176 195.25 601.833 144.085 604.303 96.4746L606.751 96.8843C606.491 101.913 606.129 106.979 605.665 112.083Z" fill="#F2F2F2"/>
<path d="M621.362 364.278C572.889 441.394 514.082 496.494 455.771 519.426L454.592 517.263C512.499 494.489 570.962 439.672 619.213 362.908L621.362 364.278Z" fill="#F2F2F2"/>
<path d="M604.489 166.147C600.548 209.57 589.32 255.358 571.712 299.537C549.936 354.17 520.186 402.29 485.675 438.696L483.76 437.026C518.103 400.795 547.719 352.887 569.403 298.48C589.001 249.314 600.657 198.148 603.128 150.538L605.575 150.948C605.315 155.976 604.953 161.043 604.489 166.147Z" fill="#F2F2F2"/>
<path d="M60.3259 277.628H28.5222C27.8427 277.629 27.1717 277.477 26.5596 277.182C25.9474 276.887 25.4099 276.457 24.9875 275.925C24.5702 275.407 24.2758 274.8 24.1264 274.151C23.9769 273.503 23.9764 272.829 24.1247 272.18C27.1537 258.814 26.9634 244.921 23.5695 231.643C23.3549 230.769 23.4068 229.851 23.7186 229.006C24.0304 228.162 24.5878 227.43 25.3191 226.905C41.6726 215.143 54.5515 215.485 63.5984 227.921C64.0062 228.488 64.2771 229.142 64.3899 229.831C66.8071 244.363 66.9409 259.183 64.7863 273.756C64.6366 274.832 64.1022 275.817 63.2821 276.528C62.462 277.24 61.4118 277.631 60.3259 277.628V277.628Z" fill="#E6E6E6"/>
<path d="M50.4658 245.779H39.5252C38.9203 245.779 38.34 245.539 37.9122 245.111C37.4844 244.683 37.2441 244.103 37.2441 243.498C37.2441 242.893 37.4844 242.313 37.9122 241.885C38.34 241.457 38.9203 241.217 39.5252 241.217H50.4658C51.0699 241.218 51.6489 241.459 52.0757 241.887C52.5024 242.314 52.7421 242.894 52.7421 243.498C52.7421 244.102 52.5024 244.682 52.0757 245.109C51.6489 245.537 51.0699 245.778 50.4658 245.779V245.779Z" fill="white"/>
<path d="M50.4658 253.779H39.5252C38.9203 253.779 38.34 253.539 37.9122 253.111C37.4844 252.683 37.2441 252.103 37.2441 251.498C37.2441 250.893 37.4844 250.313 37.9122 249.885C38.34 249.457 38.9203 249.217 39.5252 249.217H50.4658C51.0699 249.218 51.6489 249.459 52.0757 249.887C52.5024 250.314 52.7421 250.894 52.7421 251.498C52.7421 252.102 52.5024 252.682 52.0757 253.109C51.6489 253.537 51.0699 253.778 50.4658 253.779V253.779Z" fill="white"/>
<path d="M50.4658 261.779H39.5252C38.9203 261.779 38.34 261.539 37.9122 261.111C37.4844 260.683 37.2441 260.103 37.2441 259.498C37.2441 258.893 37.4844 258.313 37.9122 257.885C38.34 257.457 38.9203 257.217 39.5252 257.217H50.4658C51.0699 257.218 51.6489 257.459 52.0757 257.887C52.5024 258.314 52.7421 258.894 52.7421 259.498C52.7421 260.102 52.5024 260.682 52.0757 261.109C51.6489 261.537 51.0699 261.778 50.4658 261.779V261.779Z" fill="white"/>
<path d="M638.326 419.628H606.522C605.843 419.629 605.172 419.477 604.56 419.182C603.947 418.887 603.41 418.457 602.988 417.925C602.57 417.407 602.276 416.8 602.126 416.151C601.977 415.503 601.976 414.829 602.125 414.18C605.154 400.814 604.963 386.921 601.57 373.643C601.355 372.769 601.407 371.851 601.719 371.006C602.03 370.162 602.588 369.43 603.319 368.905C619.673 357.144 632.551 357.485 641.598 369.921C642.006 370.488 642.277 371.142 642.39 371.831C644.807 386.363 644.941 401.183 642.786 415.756C642.637 416.832 642.102 417.817 641.282 418.529C640.462 419.24 639.412 419.631 638.326 419.628V419.628Z" fill="#E6E6E6"/>
<path d="M628.466 387.779H617.525C616.921 387.778 616.342 387.537 615.915 387.109C615.489 386.682 615.249 386.102 615.249 385.498C615.249 384.894 615.489 384.314 615.915 383.887C616.342 383.459 616.921 383.218 617.525 383.217H628.466C629.071 383.217 629.651 383.457 630.079 383.885C630.507 384.313 630.747 384.893 630.747 385.498C630.747 386.103 630.507 386.683 630.079 387.111C629.651 387.539 629.071 387.779 628.466 387.779Z" fill="white"/>
<path d="M628.466 395.779H617.525C616.921 395.778 616.342 395.537 615.915 395.109C615.489 394.682 615.249 394.102 615.249 393.498C615.249 392.894 615.489 392.314 615.915 391.887C616.342 391.459 616.921 391.218 617.525 391.217H628.466C629.071 391.217 629.651 391.457 630.079 391.885C630.507 392.313 630.747 392.893 630.747 393.498C630.747 394.103 630.507 394.683 630.079 395.111C629.651 395.539 629.071 395.779 628.466 395.779Z" fill="white"/>
<path d="M628.466 403.779H617.525C616.921 403.778 616.342 403.537 615.915 403.109C615.489 402.682 615.249 402.102 615.249 401.498C615.249 400.894 615.489 400.314 615.915 399.887C616.342 399.459 616.921 399.218 617.525 399.217H628.466C629.071 399.217 629.651 399.457 630.079 399.885C630.507 400.313 630.747 400.893 630.747 401.498C630.747 402.103 630.507 402.683 630.079 403.111C629.651 403.539 629.071 403.779 628.466 403.779Z" fill="white"/>
<path d="M758.67 614.136C758.671 614.293 758.64 614.448 758.58 614.592C758.521 614.737 758.433 614.868 758.323 614.979C758.212 615.089 758.081 615.177 757.936 615.237C757.791 615.296 757.636 615.327 757.48 615.326H1.19C0.874395 615.326 0.571725 615.201 0.348557 614.978C0.125388 614.755 0 614.452 0 614.136C0 613.821 0.125388 613.518 0.348557 613.295C0.571725 613.072 0.874395 612.946 1.19 612.946H757.48C757.636 612.946 757.791 612.976 757.936 613.036C758.081 613.096 758.212 613.183 758.323 613.294C758.433 613.404 758.521 613.536 758.58 613.68C758.64 613.825 758.671 613.98 758.67 614.136V614.136Z" fill="#CCCCCC"/>
<path d="M199.503 541.276L197.52 513.688C184.527 507.192 170.144 503.967 155.621 504.292C176.053 520.085 174.416 551.649 188.566 573.251C193.031 579.955 198.947 585.568 205.876 589.674C212.805 593.781 220.57 596.275 228.594 596.973L245.598 606.755C247.543 593.899 246.678 580.774 243.062 568.285C239.447 555.795 233.166 544.238 224.654 534.409C219.824 528.943 214.324 524.107 208.286 520.014C204.569 530.685 199.503 541.276 199.503 541.276Z" fill="#F2F2F2"/>
<path d="M559.166 545.276L561.15 517.688C574.143 511.192 588.526 507.967 603.049 508.292C582.617 524.085 584.254 555.649 570.104 577.251C565.639 583.955 559.723 589.568 552.793 593.674C545.864 597.781 538.1 600.275 530.076 600.973L513.072 610.755C511.127 597.899 511.992 584.774 515.608 572.285C519.223 559.795 525.504 548.238 534.016 538.409C538.846 532.943 544.345 528.107 550.384 524.014C554.101 534.685 559.166 545.276 559.166 545.276Z" fill="#F2F2F2"/>
<path d="M370.335 233.942C380.828 233.942 389.335 225.436 389.335 214.942C389.335 204.449 380.828 195.942 370.335 195.942C359.842 195.942 351.335 204.449 351.335 214.942C351.335 225.436 359.842 233.942 370.335 233.942Z" fill="#6C63FF"/>
<path d="M380.089 207.024C379.803 206.751 379.423 206.599 379.028 206.599C378.633 206.599 378.253 206.751 377.967 207.024C373.936 210.239 370.315 213.938 367.185 218.037C366.417 216.55 365.649 215.064 364.881 213.577C363.994 211.862 361.404 213.377 362.29 215.092C363.414 217.266 364.538 219.44 365.661 221.614C365.797 221.836 365.987 222.019 366.214 222.146C366.441 222.274 366.696 222.341 366.956 222.341C367.216 222.341 367.472 222.274 367.699 222.146C367.926 222.019 368.116 221.836 368.252 221.614C371.586 216.917 375.572 212.719 380.089 209.145C380.368 208.863 380.524 208.482 380.524 208.084C380.524 207.687 380.368 207.306 380.089 207.024V207.024Z" fill="white"/>
<path d="M285.319 268.819L256.668 223.824L289.846 206.055L298.554 240.385L359.909 273.54C362.331 272.668 364.955 272.52 367.46 273.114C369.965 273.707 372.243 275.017 374.017 276.883C375.791 278.749 376.983 281.091 377.449 283.622C377.914 286.154 377.633 288.767 376.64 291.142C375.646 293.517 373.983 295.552 371.854 296.998C369.724 298.444 367.219 299.239 364.645 299.286C362.071 299.334 359.539 298.631 357.357 297.264C355.176 295.897 353.439 293.925 352.359 291.588L285.319 268.819Z" fill="#A0616A"/>
<path d="M235.735 169.856C226.732 183.074 258.725 231.119 258.725 231.119C260.283 227.759 275.182 265.485 277.677 263.256C284.769 256.922 295.871 239.28 302.042 238.493C305.571 238.044 293.857 213.015 293.857 213.015C293.857 213.015 288.504 198.235 281.239 179.356C279.284 173.981 276.001 169.187 271.695 165.422C267.39 161.656 262.201 159.041 256.613 157.821C256.613 157.821 244.737 156.638 235.735 169.856Z" fill="#3F3D56"/>
<path d="M236.175 600.491L249.782 600.49L256.255 548.005L236.172 548.006L236.175 600.491Z" fill="#A0616A"/>
<path d="M232.703 596.048L236.533 596.048L251.486 589.967L259.501 596.047H259.502C264.031 596.047 268.374 597.847 271.577 601.049C274.78 604.252 276.579 608.595 276.579 613.124V613.679L232.704 613.681L232.703 596.048Z" fill="#2F2E41"/>
<path d="M299.391 600.491L312.998 600.49L319.472 548.005L299.389 548.006L299.391 600.491Z" fill="#A0616A"/>
<path d="M295.92 596.048L299.75 596.048L314.703 589.967L322.717 596.047H322.719C327.248 596.047 331.591 597.847 334.794 601.049C337.996 604.252 339.796 608.595 339.796 613.124V613.679L295.921 613.681L295.92 596.048Z" fill="#2F2E41"/>
<path d="M305.281 313.552L216.774 315.764C199.965 324.894 199.709 344.655 205.217 368.117C205.217 368.117 203.358 382.062 207.076 385.78C210.795 389.499 212.654 389.499 210.795 396.006C208.936 402.514 218.759 413.143 217.566 414.336C216.373 415.529 213.584 422.037 213.584 422.037L222.88 475.027C222.88 475.027 229.388 567.063 231.247 568.922C233.107 570.782 234.966 568.922 233.107 573.571C231.247 578.219 229.388 576.36 231.247 578.219C232.894 579.995 234.446 581.857 235.896 583.797H258.372C258.372 583.797 260.067 574.5 260.067 573.571C260.067 572.641 261.926 567.063 261.926 566.133C261.926 565.204 260.283 563.56 260.283 563.56C259.715 561.671 259.331 559.73 259.137 557.767C259.137 555.907 253.559 484.324 253.559 484.324L264.715 391.358L291.675 482.464C291.675 482.464 291.675 562.415 293.534 564.274C295.394 566.133 295.394 565.204 294.464 568.922C293.534 572.641 289.816 571.711 292.605 574.5C295.394 577.289 296.323 572.641 295.394 577.289L294.464 581.938L322.354 582.337C322.354 582.337 326.072 574.5 324.213 571.711C322.354 568.922 322.465 569.684 324.734 565.12C327.002 560.556 327.932 559.626 327.002 558.696C326.072 557.767 326.072 552.822 326.072 552.822L321.424 463.871C321.424 463.871 320.494 369.976 320.494 367.187C320.424 365.752 320.689 364.32 321.267 363.005V359.219L317.705 345.805L305.281 313.552Z" fill="#2F2E41"/>
<path d="M252.114 129.515C267.302 129.515 279.614 117.203 279.614 102.015C279.614 86.8275 267.302 74.5155 252.114 74.5155C236.926 74.5155 224.614 86.8275 224.614 102.015C224.614 117.203 236.926 129.515 252.114 129.515Z" fill="#A0616A"/>
<path d="M265.863 147.69C271.787 151.212 275.331 157.684 277.366 164.269C281.132 176.461 283.399 189.066 284.117 201.806L286.266 239.947L312.879 321.161C289.814 340.677 203.119 325.597 203.119 325.597C203.119 325.597 200.458 324.71 203.119 322.048C205.78 319.387 208.371 321.745 205.71 319.084C203.049 316.422 204.883 319.387 205.77 316.726C206.658 314.064 205.77 315.839 204.883 314.952C203.996 314.064 211.751 306.081 211.751 306.081L204.654 259.463L195.783 165.432C206.428 152.126 227.837 144.282 227.837 144.282L233.369 134.325L261.027 136.537L265.863 147.69Z" fill="#3F3D56"/>
<path d="M274.782 87.4051C276.92 88.9993 278.503 91.2236 279.31 93.765C279.62 89.6118 279.64 85.4421 279.369 81.2862C279.045 78.3659 276.989 77.709 274.608 76.9478C272.458 76.2601 270.027 75.4833 269.372 72.6483C260.728 64.239 245.68 64.663 235.382 67.5963C229.715 69.2105 226.454 71.2843 226.162 72.4992L226.102 72.7494L225.872 72.8644C221.504 75.0485 220.653 81.9453 220.71 87.3462C220.816 97.5221 224.329 109.079 226.309 110.018C226.414 110.068 226.44 110.048 226.485 110.011C229.466 107.629 233.102 110.192 234.7 111.585C235.642 105.26 238.677 99.4341 243.319 95.0366C247.961 90.6392 253.943 87.9242 260.309 87.3252C262.388 87.1243 264.451 86.7784 266.482 86.2902C267.512 86.0237 268.571 85.8847 269.635 85.8764C271.467 85.8486 273.263 86.3821 274.782 87.4051V87.4051Z" fill="#2F2E41"/>
<path d="M445.497 335.464L498.396 281.746L512.333 238.783L489.905 229.711C478.795 240.918 467.358 275.226 467.358 275.226L431.253 323.684C430.964 323.791 430.677 323.905 430.394 324.039C428.731 324.823 427.299 326.024 426.237 327.524C425.174 329.024 424.516 330.772 424.326 332.601C424.137 334.429 424.422 336.276 425.155 337.962C425.888 339.648 427.043 341.116 428.509 342.225C429.975 343.334 431.702 344.046 433.524 344.293C435.346 344.539 437.2 344.311 438.908 343.632C440.616 342.952 442.12 341.843 443.274 340.412C444.428 338.982 445.194 337.277 445.497 335.464Z" fill="#FFB8B8"/>
<path d="M483.788 234.626L512.151 242.831L512.257 242.81C522.683 240.786 530.93 223.46 536.012 209.282C537.684 204.605 537.518 199.468 535.547 194.91C533.577 190.351 529.949 186.71 525.397 184.724V184.724C522.029 183.282 518.325 182.81 514.704 183.362C511.082 183.914 507.687 185.469 504.902 187.849L490.76 200.027L483.788 234.626Z" fill="#6C63FF"/>
<path d="M459.521 598.895L444.267 598.894L437.011 540.059L459.523 540.06L459.521 598.895Z" fill="#FFB8B8"/>
<path d="M463.412 593.915L459.119 593.914L442.357 587.098L433.373 593.913H433.371C428.294 593.914 423.425 595.931 419.835 599.521C416.245 603.111 414.228 607.98 414.228 613.057V613.679L463.411 613.681L463.412 593.915Z" fill="#2F2E41"/>
<path d="M527.204 598.895L511.95 598.894L504.694 540.059L527.207 540.06L527.204 598.895Z" fill="#FFB8B8"/>
<path d="M531.095 593.915L526.802 593.914L510.039 587.098L501.055 593.913H501.054C495.977 593.914 491.108 595.931 487.518 599.521C483.928 603.111 481.91 607.98 481.91 613.057V613.679L531.094 613.681L531.095 593.915Z" fill="#2F2E41"/>
<path d="M550.463 345.47C550.463 345.47 552.244 366.843 547.791 387.326C543.338 407.809 543.338 465.496 543.338 465.496L533.542 577.908L504.153 575.236L496.138 387.326L467.64 450.557L470.312 459.462L466.753 461.689C466.753 461.689 469.421 479.055 467.64 479.055C465.859 479.055 461.406 481.726 461.406 481.726L464.968 573.455L434.689 572.564L424.002 443.432L435.579 369.515L436.47 355.266L440.477 355.431L442.518 349.477L446.266 339.236L550.463 345.47Z" fill="#2F2E41"/>
<path d="M552.002 349.959L552.161 349.736C560.638 337.868 547.888 309.35 545.965 305.216L554.064 302.588L552.241 287.085L551.377 280.174L557.567 273.984L557.584 273.829L561.146 242.659L566.326 221.957C568.277 214.13 568.111 205.926 565.844 198.185C563.577 190.444 559.291 183.446 553.425 177.909L541.453 166.621L526.903 145.092H503.44L495.394 160.288C487.594 162.091 480.674 166.573 475.839 172.953C471.004 179.333 468.56 187.208 468.934 195.204L470.757 235.06L463.619 284.683L463.615 293.663L455.582 302.59L457.336 311.361L451.223 313.981L448.523 326.578C447.406 328.052 440.032 337.884 440.032 340.571C440.032 340.975 440.33 341.365 440.969 341.798C445.994 345.2 473.769 352.138 486.062 347.219C499.156 341.983 551.207 349.837 551.732 349.917L552.002 349.959Z" fill="#6C63FF"/>
<path d="M512.141 138.142C529.303 138.142 543.215 124.23 543.215 107.068C543.215 89.9057 529.303 75.9932 512.141 75.9932C494.979 75.9932 481.066 89.9057 481.066 107.068C481.066 124.23 494.979 138.142 512.141 138.142Z" fill="#FFB8B8"/>
<path d="M509.163 138.645C513.976 138.596 518.775 138.136 523.51 137.27C528.196 136.19 538.537 128.194 541.355 123.47C543.449 119.961 544.706 114.532 545.391 110.596C546.317 105.387 546.139 100.042 544.868 94.9069C543.597 89.7715 541.261 84.9603 538.012 80.7849C536.76 79.0356 535.058 77.6574 533.087 76.796C532.912 76.733 532.733 76.6777 532.552 76.6312C529.695 75.9577 527.104 74.4455 525.112 72.2888C524.725 71.8521 524.308 71.4439 523.862 71.0673C521.628 69.2782 519.002 68.0434 516.198 67.4637C511.67 66.3762 505.192 67.739 496.945 71.5178C492.802 73.4163 488.203 72.8867 484.659 72.2131C484.46 72.18 484.256 72.1996 484.068 72.2698C483.879 72.3399 483.712 72.4583 483.583 72.6132C482.119 74.0597 480.163 74.8988 478.106 74.9618C476.848 75.0496 475.571 76.8281 474.032 79.1441C473.683 79.6699 473.276 80.2835 472.98 80.6579L472.921 79.9547L472.228 80.7587C471.14 82.0224 470.389 83.5409 470.046 85.1728C469.702 86.8048 469.778 88.4971 470.264 90.0922C470.751 91.6873 471.633 93.1333 472.829 94.2956C474.025 95.4578 475.496 96.2985 477.104 96.7394C478.38 97.0438 479.684 97.2172 480.995 97.2568C481.79 97.3077 482.613 97.3603 483.402 97.4764C485.939 97.928 488.315 99.0295 490.299 100.674C492.282 102.318 493.806 104.448 494.72 106.857C494.936 107.413 495.277 107.913 495.717 108.317C496.157 108.721 496.683 109.018 497.256 109.186C497.829 109.354 498.433 109.388 499.021 109.286C499.609 109.184 500.166 108.948 500.649 108.596C501.451 107.937 502.401 107.482 503.418 107.27C504.434 107.057 505.487 107.094 506.486 107.377C507.355 107.831 508.041 108.57 508.429 109.47C508.899 110.472 509.657 111.311 510.606 111.88C513.841 113.444 514.249 120.731 513.26 126.84C512.306 132.728 510.23 137.023 508.213 137.285C506.659 137.486 506.484 137.602 506.378 137.88L506.284 138.129L506.465 138.355C507.333 138.645 508.254 138.744 509.163 138.645V138.645Z" fill="#2F2E41"/>
<path d="M483.382 237.949L468.446 218.917C453.231 223.107 426.235 247.17 426.235 247.17L370.793 271.229C368.943 270.918 367.043 271.1 365.285 271.757C363.527 272.414 361.974 273.522 360.78 274.97C359.587 276.418 358.796 278.155 358.487 280.005C358.179 281.856 358.363 283.756 359.022 285.513C359.68 287.27 360.79 288.822 362.24 290.014C363.689 291.205 365.427 291.994 367.278 292.301C369.129 292.607 371.029 292.42 372.785 291.76C374.541 291.099 376.092 289.987 377.282 288.536L449.909 268.274L483.382 237.949Z" fill="#FFB8B8"/>
<path d="M479.803 242.3L503.371 216.028L504.679 197.412C504.923 193.756 504.139 190.105 502.417 186.872C500.694 183.638 498.102 180.951 494.932 179.113V179.113C490.619 176.651 485.532 175.919 480.699 177.065C475.866 178.21 471.649 181.148 468.9 185.284C460.572 197.835 451.614 214.804 456.223 224.371L456.27 224.468L479.803 242.3Z" fill="#6C63FF"/>
<path d="M262.579 341.05L201.325 309.679C196.968 307.447 195.524 301.529 198.107 296.485L238.047 218.501C240.63 213.458 246.276 211.17 250.633 213.401L311.887 244.772C316.244 247.004 317.688 252.923 315.105 257.966L275.165 335.95C272.582 340.994 266.936 343.281 262.579 341.05Z" fill="#E6E6E6"/>
<path d="M252.113 326.628L210.496 305.314C206.416 303.224 205.064 297.681 207.483 292.958L240.664 228.17C243.083 223.446 248.371 221.304 252.452 223.394L302.717 249.137C306.797 251.227 308.149 256.77 305.73 261.493L287.704 296.689C276.928 317.73 270.29 335.937 252.113 326.628Z" fill="white"/>
<path d="M272.689 291.248L235.828 272.369C235.377 272.048 235.057 271.576 234.926 271.038C234.795 270.5 234.862 269.933 235.114 269.441C235.366 268.948 235.787 268.563 236.3 268.355C236.813 268.147 237.384 268.131 237.908 268.309L274.769 287.187C275.22 287.508 275.54 287.981 275.671 288.519C275.802 289.056 275.735 289.623 275.483 290.116C275.231 290.608 274.81 290.994 274.297 291.202C273.784 291.409 273.213 291.426 272.689 291.248V291.248Z" fill="#6C63FF"/>
<path d="M240.132 284.7L231.72 280.392C231.269 280.071 230.949 279.598 230.818 279.06C230.686 278.523 230.753 277.956 231.005 277.463C231.258 276.971 231.679 276.585 232.192 276.377C232.705 276.169 233.275 276.153 233.799 276.331L242.211 280.639C242.662 280.96 242.982 281.433 243.113 281.971C243.244 282.508 243.178 283.075 242.925 283.568C242.673 284.06 242.252 284.446 241.739 284.654C241.226 284.862 240.656 284.878 240.132 284.7V284.7Z" fill="#6C63FF"/>
<path d="M250.922 300.353L227.611 288.414C227.16 288.093 226.84 287.62 226.709 287.083C226.578 286.545 226.645 285.978 226.897 285.486C227.149 284.993 227.57 284.608 228.083 284.4C228.596 284.192 229.167 284.175 229.691 284.354L253.002 296.292C253.453 296.613 253.773 297.086 253.904 297.624C254.035 298.161 253.968 298.728 253.716 299.221C253.464 299.713 253.043 300.099 252.53 300.307C252.017 300.515 251.446 300.531 250.922 300.353V300.353Z" fill="#6C63FF"/>
<path d="M287.276 262.766L250.415 243.887C249.964 243.566 249.644 243.094 249.513 242.556C249.382 242.018 249.448 241.451 249.701 240.959C249.953 240.466 250.374 240.081 250.887 239.873C251.4 239.665 251.97 239.649 252.494 239.827L289.356 258.705C289.807 259.027 290.127 259.499 290.258 260.037C290.389 260.574 290.322 261.141 290.07 261.634C289.818 262.126 289.397 262.512 288.884 262.72C288.371 262.928 287.8 262.944 287.276 262.766V262.766Z" fill="#6C63FF"/>
<path d="M254.719 256.218L246.306 251.91C245.856 251.589 245.536 251.116 245.404 250.578C245.273 250.041 245.34 249.474 245.592 248.981C245.845 248.489 246.266 248.103 246.779 247.895C247.292 247.687 247.862 247.671 248.386 247.849L256.798 252.157C257.249 252.479 257.569 252.951 257.7 253.489C257.831 254.026 257.765 254.593 257.512 255.086C257.26 255.579 256.839 255.964 256.326 256.172C255.813 256.38 255.243 256.396 254.719 256.218V256.218Z" fill="#6C63FF"/>
<path d="M265.509 271.871L242.198 259.932C241.747 259.611 241.427 259.138 241.296 258.601C241.165 258.063 241.232 257.496 241.484 257.004C241.736 256.511 242.157 256.126 242.67 255.918C243.183 255.71 243.754 255.694 244.278 255.872L267.589 267.81C268.04 268.131 268.36 268.604 268.491 269.142C268.622 269.679 268.555 270.246 268.303 270.739C268.051 271.231 267.63 271.617 267.117 271.825C266.604 272.033 266.033 272.049 265.509 271.871L265.509 271.871Z" fill="#6C63FF"/>
<path d="M211.821 273.158L197.982 221.64L234.962 214.64L232.973 250.001L281.561 300.031C284.133 299.926 286.681 300.571 288.892 301.889C291.104 303.206 292.885 305.139 294.017 307.451C295.149 309.763 295.584 312.354 295.269 314.909C294.954 317.464 293.903 319.873 292.243 321.84C290.583 323.808 288.386 325.25 285.92 325.991C283.455 326.732 280.827 326.739 278.357 326.012C275.888 325.286 273.683 323.856 272.012 321.898C270.341 319.939 269.275 317.537 268.946 314.984L211.821 273.158Z" fill="#A0616A"/>
<path d="M194.198 163.879C181.646 173.788 197.757 229.216 197.757 229.216C200.251 226.479 203.15 266.936 206.199 265.559C214.864 261.643 230.746 248.142 236.869 249.243C240.37 249.872 236.702 222.482 236.702 222.482C236.702 222.482 236.027 206.778 234.759 186.589C234.506 180.874 232.812 175.317 229.833 170.434C226.855 165.55 222.69 161.5 217.725 158.659C217.725 158.659 206.75 153.97 194.198 163.879Z" fill="#3F3D56"/>
<path d="M403.054 387.504L369.628 371.72C368.913 371.384 368.283 370.891 367.786 370.277C367.289 369.664 366.938 368.945 366.758 368.176C366.576 367.424 366.568 366.641 366.733 365.885C366.898 365.129 367.232 364.42 367.71 363.811C377.392 351.436 384.041 336.965 387.123 321.558C387.355 320.378 387.99 319.315 388.919 318.551C389.848 317.787 391.012 317.369 392.215 317.367C409.263 317.425 422.004 323.65 430.083 335.867C430.509 336.502 430.791 337.223 430.91 337.978C431.029 338.734 430.982 339.507 430.771 340.242C426.093 356.366 418.975 371.679 409.663 385.649C408.972 386.705 407.922 387.475 406.706 387.816C405.491 388.157 404.194 388.046 403.054 387.504Z" fill="#E6E6E6"/>
<path d="M412.887 365.366L387.329 353.297C386.693 352.997 386.202 352.457 385.965 351.795C385.728 351.133 385.763 350.404 386.063 349.768C386.364 349.132 386.904 348.641 387.566 348.404C388.228 348.167 388.957 348.202 389.593 348.502L415.151 360.571C415.466 360.72 415.748 360.929 415.982 361.187C416.216 361.445 416.397 361.746 416.515 362.074C416.632 362.402 416.684 362.749 416.667 363.097C416.65 363.445 416.565 363.786 416.416 364.101C416.268 364.416 416.059 364.698 415.801 364.932C415.543 365.166 415.241 365.347 414.914 365.464C414.586 365.582 414.238 365.634 413.891 365.617C413.543 365.6 413.202 365.515 412.887 365.366H412.887Z" fill="white"/>
<path d="M416.858 356.958L391.299 344.889C390.664 344.589 390.173 344.048 389.936 343.386C389.699 342.724 389.734 341.995 390.034 341.36C390.334 340.724 390.875 340.233 391.537 339.996C392.199 339.759 392.928 339.794 393.564 340.094L419.122 352.163C419.758 352.463 420.248 353.004 420.485 353.666C420.723 354.328 420.687 355.057 420.387 355.693C420.087 356.328 419.546 356.819 418.884 357.056C418.223 357.294 417.493 357.258 416.858 356.958V356.958Z" fill="white"/>
<path d="M382.706 93.0151L380.327 93.2757C369.719 51.5913 349.159 22.7129 320.865 9.7617C284.897 -6.70151 240.422 4.35384 195.631 40.8917C150.613 77.6161 110.76 135.625 83.4139 204.235L81.1055 203.178C108.571 134.269 148.629 75.9797 193.9 39.0512C239.397 1.93596 284.781 -9.20045 321.689 7.69382C350.794 21.0161 371.893 50.5198 382.706 93.0151Z" fill="#F2F2F2"/>
<path d="M120.232 147.304C114.01 160.41 108.092 173.989 102.643 187.662C71.2822 266.344 55.39 346.699 56.6887 420.045L54.2377 419.784C52.9377 346.165 68.8756 265.533 100.334 186.605C105.8 172.894 111.734 159.277 117.974 146.133L120.232 147.304Z" fill="#F2F2F2"/>
<path d="M119.056 201.367C112.834 214.474 106.917 228.053 101.467 241.725C70.1064 320.408 54.2142 400.763 55.5129 474.109L53.0619 473.847C51.7619 400.229 67.6998 319.597 99.1585 240.669C104.624 226.958 110.558 213.341 116.798 200.197L119.056 201.367Z" fill="#F2F2F2"/>
<path d="M53.1793 221.029C55.8887 216.957 54.285 211.127 49.5974 208.009C44.9097 204.89 38.9132 205.663 36.2037 209.736C33.4943 213.808 35.098 219.638 39.7856 222.756C44.4733 225.875 50.4699 225.102 53.1793 221.029Z" fill="#CCCCCC"/>
<path d="M630.122 368.099C632.831 364.026 631.227 358.197 626.54 355.078C621.852 351.959 615.856 352.732 613.146 356.805C610.437 360.877 612.04 366.707 616.728 369.825C621.416 372.944 627.412 372.171 630.122 368.099Z" fill="#CCCCCC"/>
</g>
<path d="M194.016 647.004H199.344V657.228C197.976 658.26 196.392 659.052 194.592 659.604C192.792 660.156 190.98 660.432 189.156 660.432C186.54 660.432 184.188 659.88 182.1 658.776C180.012 657.648 178.368 656.1 177.168 654.132C175.992 652.14 175.404 649.896 175.404 647.4C175.404 644.904 175.992 642.672 177.168 640.704C178.368 638.712 180.024 637.164 182.136 636.06C184.248 634.932 186.624 634.368 189.264 634.368C191.472 634.368 193.476 634.74 195.276 635.484C197.076 636.228 198.588 637.308 199.812 638.724L196.068 642.18C194.268 640.284 192.096 639.336 189.552 639.336C187.944 639.336 186.516 639.672 185.268 640.344C184.02 641.016 183.048 641.964 182.352 643.188C181.656 644.412 181.308 645.816 181.308 647.4C181.308 648.96 181.656 650.352 182.352 651.576C183.048 652.8 184.008 653.76 185.232 654.456C186.48 655.128 187.896 655.464 189.48 655.464C191.16 655.464 192.672 655.104 194.016 654.384V647.004ZM235.469 640.632L228.449 660H223.049L218.693 647.976L214.193 660H208.793L201.809 640.632H207.101L211.673 653.736L216.425 640.632H221.177L225.785 653.736L230.501 640.632H235.469ZM245.259 640.344C248.259 640.344 250.563 641.064 252.171 642.504C253.779 643.92 254.583 646.068 254.583 648.948V660H249.327V657.588C248.271 659.388 246.303 660.288 243.423 660.288C241.935 660.288 240.639 660.036 239.535 659.532C238.455 659.028 237.627 658.332 237.051 657.444C236.475 656.556 236.187 655.548 236.187 654.42C236.187 652.62 236.859 651.204 238.203 650.172C239.571 649.14 241.671 648.624 244.503 648.624H248.967C248.967 647.4 248.595 646.464 247.851 645.816C247.107 645.144 245.991 644.808 244.503 644.808C243.471 644.808 242.451 644.976 241.443 645.312C240.459 645.624 239.619 646.056 238.923 646.608L236.907 642.684C237.963 641.94 239.223 641.364 240.687 640.956C242.175 640.548 243.699 640.344 245.259 640.344ZM244.827 656.508C245.787 656.508 246.639 656.292 247.383 655.86C248.127 655.404 248.655 654.744 248.967 653.88V651.9H245.115C242.811 651.9 241.659 652.656 241.659 654.168C241.659 654.888 241.935 655.464 242.487 655.896C243.063 656.304 243.843 656.508 244.827 656.508ZM265.03 643.188C265.702 642.252 266.602 641.544 267.73 641.064C268.882 640.584 270.202 640.344 271.69 640.344V645.528C271.066 645.48 270.646 645.456 270.43 645.456C268.822 645.456 267.562 645.912 266.65 646.824C265.738 647.712 265.282 649.056 265.282 650.856V660H259.666V640.632H265.03V643.188ZM282.736 640.344C285.736 640.344 288.04 641.064 289.648 642.504C291.256 643.92 292.06 646.068 292.06 648.948V660H286.804V657.588C285.748 659.388 283.78 660.288 280.9 660.288C279.412 660.288 278.116 660.036 277.012 659.532C275.932 659.028 275.104 658.332 274.528 657.444C273.952 656.556 273.664 655.548 273.664 654.42C273.664 652.62 274.336 651.204 275.68 650.172C277.048 649.14 279.148 648.624 281.98 648.624H286.444C286.444 647.4 286.072 646.464 285.328 645.816C284.584 645.144 283.468 644.808 281.98 644.808C280.948 644.808 279.928 644.976 278.92 645.312C277.936 645.624 277.096 646.056 276.4 646.608L274.384 642.684C275.44 641.94 276.7 641.364 278.164 640.956C279.652 640.548 281.176 640.344 282.736 640.344ZM282.304 656.508C283.264 656.508 284.116 656.292 284.86 655.86C285.604 655.404 286.132 654.744 286.444 653.88V651.9H282.592C280.288 651.9 279.136 652.656 279.136 654.168C279.136 654.888 279.412 655.464 279.964 655.896C280.54 656.304 281.32 656.508 282.304 656.508ZM308.915 640.344C311.315 640.344 313.247 641.064 314.711 642.504C316.199 643.944 316.943 646.08 316.943 648.912V660H311.327V649.776C311.327 648.24 310.991 647.1 310.319 646.356C309.647 645.588 308.675 645.204 307.403 645.204C305.987 645.204 304.859 645.648 304.019 646.536C303.179 647.4 302.759 648.696 302.759 650.424V660H297.143V640.632H302.507V642.9C303.251 642.084 304.175 641.46 305.279 641.028C306.383 640.572 307.595 640.344 308.915 640.344ZM331.604 660.288C329.54 660.288 327.68 659.868 326.024 659.028C324.392 658.164 323.108 656.976 322.172 655.464C321.26 653.952 320.804 652.236 320.804 650.316C320.804 648.396 321.26 646.68 322.172 645.168C323.108 643.656 324.392 642.48 326.024 641.64C327.68 640.776 329.54 640.344 331.604 640.344C333.644 640.344 335.42 640.776 336.932 641.64C338.468 642.48 339.584 643.692 340.28 645.276L335.924 647.616C334.916 645.84 333.464 644.952 331.568 644.952C330.104 644.952 328.892 645.432 327.932 646.392C326.972 647.352 326.492 648.66 326.492 650.316C326.492 651.972 326.972 653.28 327.932 654.24C328.892 655.2 330.104 655.68 331.568 655.68C333.488 655.68 334.94 654.792 335.924 653.016L340.28 655.392C339.584 656.928 338.468 658.128 336.932 658.992C335.42 659.856 333.644 660.288 331.604 660.288ZM342.074 667.272C340.106 667.272 338.606 666.912 337.574 666.192L339.086 662.124C339.734 662.58 340.526 662.808 341.462 662.808C342.182 662.808 342.746 662.568 343.154 662.088C343.562 661.632 343.766 660.936 343.766 660V640.632H349.382V659.964C349.382 662.22 348.734 663.996 347.438 665.292C346.166 666.612 344.378 667.272 342.074 667.272ZM346.574 637.932C345.542 637.932 344.702 637.632 344.054 637.032C343.406 636.432 343.082 635.688 343.082 634.8C343.082 633.912 343.406 633.168 344.054 632.568C344.702 631.968 345.542 631.668 346.574 631.668C347.606 631.668 348.446 631.956 349.094 632.532C349.742 633.108 350.066 633.828 350.066 634.692C350.066 635.628 349.742 636.408 349.094 637.032C348.446 637.632 347.606 637.932 346.574 637.932ZM362.365 640.344C365.365 640.344 367.669 641.064 369.277 642.504C370.885 643.92 371.689 646.068 371.689 648.948V660H366.433V657.588C365.377 659.388 363.409 660.288 360.529 660.288C359.041 660.288 357.745 660.036 356.641 659.532C355.561 659.028 354.733 658.332 354.157 657.444C353.581 656.556 353.293 655.548 353.293 654.42C353.293 652.62 353.965 651.204 355.309 650.172C356.677 649.14 358.777 648.624 361.609 648.624H366.073C366.073 647.4 365.701 646.464 364.957 645.816C364.213 645.144 363.097 644.808 361.609 644.808C360.577 644.808 359.557 644.976 358.549 645.312C357.565 645.624 356.725 646.056 356.029 646.608L354.013 642.684C355.069 641.94 356.329 641.364 357.793 640.956C359.281 640.548 360.805 640.344 362.365 640.344ZM361.933 656.508C362.893 656.508 363.745 656.292 364.489 655.86C365.233 655.404 365.761 654.744 366.073 653.88V651.9H362.221C359.917 651.9 358.765 652.656 358.765 654.168C358.765 654.888 359.041 655.464 359.593 655.896C360.169 656.304 360.949 656.508 361.933 656.508ZM393.483 660.288C391.875 660.288 390.303 660.096 388.767 659.712C387.231 659.304 386.007 658.8 385.095 658.2L386.967 654.168C387.831 654.72 388.875 655.176 390.099 655.536C391.323 655.872 392.523 656.04 393.699 656.04C396.075 656.04 397.263 655.452 397.263 654.276C397.263 653.724 396.939 653.328 396.291 653.088C395.643 652.848 394.647 652.644 393.303 652.476C391.719 652.236 390.411 651.96 389.379 651.648C388.347 651.336 387.447 650.784 386.679 649.992C385.935 649.2 385.563 648.072 385.563 646.608C385.563 645.384 385.911 644.304 386.607 643.368C387.327 642.408 388.359 641.664 389.703 641.136C391.071 640.608 392.679 640.344 394.527 640.344C395.895 640.344 397.251 640.5 398.595 640.812C399.963 641.1 401.091 641.508 401.979 642.036L400.107 646.032C398.403 645.072 396.543 644.592 394.527 644.592C393.327 644.592 392.427 644.76 391.827 645.096C391.227 645.432 390.927 645.864 390.927 646.392C390.927 646.992 391.251 647.412 391.899 647.652C392.547 647.892 393.579 648.12 394.995 648.336C396.579 648.6 397.875 648.888 398.883 649.2C399.891 649.488 400.767 650.028 401.511 650.82C402.255 651.612 402.627 652.716 402.627 654.132C402.627 655.332 402.267 656.4 401.547 657.336C400.827 658.272 399.771 659.004 398.379 659.532C397.011 660.036 395.379 660.288 393.483 660.288ZM413.904 640.344C416.904 640.344 419.208 641.064 420.816 642.504C422.424 643.92 423.228 646.068 423.228 648.948V660H417.972V657.588C416.916 659.388 414.948 660.288 412.068 660.288C410.58 660.288 409.284 660.036 408.18 659.532C407.1 659.028 406.272 658.332 405.696 657.444C405.12 656.556 404.832 655.548 404.832 654.42C404.832 652.62 405.504 651.204 406.848 650.172C408.216 649.14 410.316 648.624 413.148 648.624H417.612C417.612 647.4 417.24 646.464 416.496 645.816C415.752 645.144 414.636 644.808 413.148 644.808C412.116 644.808 411.096 644.976 410.088 645.312C409.104 645.624 408.264 646.056 407.568 646.608L405.552 642.684C406.608 641.94 407.868 641.364 409.332 640.956C410.82 640.548 412.344 640.344 413.904 640.344ZM413.472 656.508C414.432 656.508 415.284 656.292 416.028 655.86C416.772 655.404 417.3 654.744 417.612 653.88V651.9H413.76C411.456 651.9 410.304 652.656 410.304 654.168C410.304 654.888 410.58 655.464 411.132 655.896C411.708 656.304 412.488 656.508 413.472 656.508ZM440.803 659.064C440.251 659.472 439.567 659.784 438.751 660C437.959 660.192 437.119 660.288 436.231 660.288C433.927 660.288 432.139 659.7 430.867 658.524C429.619 657.348 428.995 655.62 428.995 653.34V645.384H426.007V641.064H428.995V636.348H434.611V641.064H439.435V645.384H434.611V653.268C434.611 654.084 434.815 654.72 435.223 655.176C435.655 655.608 436.255 655.824 437.023 655.824C437.911 655.824 438.667 655.584 439.291 655.104L440.803 659.064ZM462.828 640.632L454.08 661.188C453.192 663.42 452.088 664.992 450.768 665.904C449.472 666.816 447.9 667.272 446.052 667.272C445.044 667.272 444.048 667.116 443.064 666.804C442.08 666.492 441.276 666.06 440.652 665.508L442.704 661.512C443.136 661.896 443.628 662.196 444.18 662.412C444.756 662.628 445.32 662.736 445.872 662.736C446.64 662.736 447.264 662.544 447.744 662.16C448.224 661.8 448.656 661.188 449.04 660.324L449.112 660.144L440.724 640.632H446.52L451.956 653.772L457.428 640.632H462.828ZM471.354 660.288C469.746 660.288 468.174 660.096 466.638 659.712C465.102 659.304 463.878 658.8 462.966 658.2L464.838 654.168C465.702 654.72 466.746 655.176 467.97 655.536C469.194 655.872 470.394 656.04 471.57 656.04C473.946 656.04 475.134 655.452 475.134 654.276C475.134 653.724 474.81 653.328 474.162 653.088C473.514 652.848 472.518 652.644 471.174 652.476C469.59 652.236 468.282 651.96 467.25 651.648C466.218 651.336 465.318 650.784 464.55 649.992C463.806 649.2 463.434 648.072 463.434 646.608C463.434 645.384 463.782 644.304 464.478 643.368C465.198 642.408 466.23 641.664 467.574 641.136C468.942 640.608 470.55 640.344 472.398 640.344C473.766 640.344 475.122 640.5 476.466 640.812C477.834 641.1 478.962 641.508 479.85 642.036L477.978 646.032C476.274 645.072 474.414 644.592 472.398 644.592C471.198 644.592 470.298 644.76 469.698 645.096C469.098 645.432 468.798 645.864 468.798 646.392C468.798 646.992 469.122 647.412 469.77 647.652C470.418 647.892 471.45 648.12 472.866 648.336C474.45 648.6 475.746 648.888 476.754 649.2C477.762 649.488 478.638 650.028 479.382 650.82C480.126 651.612 480.498 652.716 480.498 654.132C480.498 655.332 480.138 656.4 479.418 657.336C478.698 658.272 477.642 659.004 476.25 659.532C474.882 660.036 473.25 660.288 471.354 660.288ZM490.119 641.064H495.087V645.384H490.263V660H484.647V645.384H481.659V641.064H484.647V640.2C484.647 637.992 485.295 636.24 486.591 634.944C487.911 633.648 489.759 633 492.135 633C492.975 633 493.767 633.096 494.511 633.288C495.279 633.456 495.915 633.708 496.419 634.044L494.943 638.112C494.295 637.656 493.539 637.428 492.675 637.428C490.971 637.428 490.119 638.364 490.119 640.236V641.064ZM505.345 640.344C508.345 640.344 510.649 641.064 512.257 642.504C513.865 643.92 514.669 646.068 514.669 648.948V660H509.413V657.588C508.357 659.388 506.389 660.288 503.509 660.288C502.021 660.288 500.725 660.036 499.621 659.532C498.541 659.028 497.713 658.332 497.137 657.444C496.561 656.556 496.273 655.548 496.273 654.42C496.273 652.62 496.945 651.204 498.289 650.172C499.657 649.14 501.757 648.624 504.589 648.624H509.053C509.053 647.4 508.681 646.464 507.937 645.816C507.193 645.144 506.077 644.808 504.589 644.808C503.557 644.808 502.537 644.976 501.529 645.312C500.545 645.624 499.705 646.056 499.009 646.608L496.993 642.684C498.049 641.94 499.309 641.364 500.773 640.956C502.261 640.548 503.785 640.344 505.345 640.344ZM504.913 656.508C505.873 656.508 506.725 656.292 507.469 655.86C508.213 655.404 508.741 654.744 509.053 653.88V651.9H505.201C502.897 651.9 501.745 652.656 501.745 654.168C501.745 654.888 502.021 655.464 502.573 655.896C503.149 656.304 503.929 656.508 504.913 656.508ZM528.068 652.404L525.368 655.068V660H519.752V633.288H525.368V648.408L533.576 640.632H540.272L532.208 648.84L540.992 660H534.188L528.068 652.404ZM552.034 660.288C549.97 660.288 548.11 659.868 546.454 659.028C544.822 658.164 543.538 656.976 542.602 655.464C541.69 653.952 541.234 652.236 541.234 650.316C541.234 648.396 541.69 646.68 542.602 645.168C543.538 643.656 544.822 642.48 546.454 641.64C548.11 640.776 549.97 640.344 552.034 640.344C554.074 640.344 555.85 640.776 557.362 641.64C558.898 642.48 560.014 643.692 560.71 645.276L556.354 647.616C555.346 645.84 553.894 644.952 551.998 644.952C550.534 644.952 549.322 645.432 548.362 646.392C547.402 647.352 546.922 648.66 546.922 650.316C546.922 651.972 547.402 653.28 548.362 654.24C549.322 655.2 550.534 655.68 551.998 655.68C553.918 655.68 555.37 654.792 556.354 653.016L560.71 655.392C560.014 656.928 558.898 658.128 557.362 658.992C555.85 659.856 554.074 660.288 552.034 660.288ZM562.504 667.272C560.536 667.272 559.036 666.912 558.004 666.192L559.516 662.124C560.164 662.58 560.956 662.808 561.892 662.808C562.612 662.808 563.176 662.568 563.584 662.088C563.992 661.632 564.196 660.936 564.196 660V640.632H569.812V659.964C569.812 662.22 569.164 663.996 567.868 665.292C566.596 666.612 564.808 667.272 562.504 667.272ZM567.004 637.932C565.972 637.932 565.132 637.632 564.484 637.032C563.836 636.432 563.512 635.688 563.512 634.8C563.512 633.912 563.836 633.168 564.484 632.568C565.132 631.968 565.972 631.668 567.004 631.668C568.036 631.668 568.876 631.956 569.524 632.532C570.172 633.108 570.496 633.828 570.496 634.692C570.496 635.628 570.172 636.408 569.524 637.032C568.876 637.632 568.036 637.932 567.004 637.932ZM574.983 640.632H580.599V660H574.983V640.632ZM577.791 637.932C576.759 637.932 575.919 637.632 575.271 637.032C574.623 636.432 574.299 635.688 574.299 634.8C574.299 633.912 574.623 633.168 575.271 632.568C575.919 631.968 576.759 631.668 577.791 631.668C578.823 631.668 579.663 631.956 580.311 632.532C580.959 633.108 581.283 633.828 581.283 634.692C581.283 635.628 580.959 636.408 580.311 637.032C579.663 637.632 578.823 637.932 577.791 637.932Z" fill="white"/>
<defs>
<clipPath id="clip0_304_1871">
<rect width="758.67" height="615.326" fill="white"/>
</clipPath>
</defs>
</svg>
