<svg width="498" height="234" viewBox="0 0 498 234" fill="none" xmlns="http://www.w3.org/2000/svg">
<path d="M27.3347 137.925H52.5518C57.3315 137.925 61.7966 141.416 62.039 146.043H62.2686V127.03H27.3347L27.3177 93.6572H61.0226C65.8237 93.6572 70.293 97.1357 70.5439 101.75H70.765L70.731 82.7242L0 82.754V82.9623C4.76274 83.2217 8.3348 88.2651 8.3348 92.9769V180.403C8.3348 185.098 4.76274 190.162 0 190.43V190.634H35.6865V190.43C30.9196 190.162 27.3177 185.098 27.3177 180.403L27.3347 137.925Z" fill="white"/>
<path d="M100.357 161.623C100.357 172.841 109.712 182.541 121.258 182.541C132.79 182.541 142.18 172.713 142.18 161.491V92.9755C142.18 88.2638 138.595 83.2204 133.819 82.961V82.7569L169.532 82.7229V82.961C164.765 83.2204 161.154 88.2638 161.154 92.9755V159.552C161.154 180.98 143.387 193.465 121.351 193.465C99.2768 193.465 81.3187 180.98 81.3187 159.552L81.3655 92.9755C81.3655 88.2638 77.7637 83.2204 73.0222 82.961V82.7229H108.683V82.961C103.929 83.2459 100.34 88.2936 100.34 92.9755L100.357 161.623Z" fill="white"/>
<path d="M392.148 100.197C386.165 90.5567 372.51 91.7176 372.51 91.7176C350.176 91.7176 351.231 108.706 351.231 108.706C351.231 108.706 349.696 117.228 360.918 123.041L383.248 134.871C404.803 146.404 402.248 162.793 402.248 162.793C402.248 162.793 403.221 193.411 358.141 193.411C358.141 193.411 345.044 193.81 337.627 191.038L331.283 171.209H331.504C338.372 181.083 358.324 182.507 358.324 182.507C383.656 181.398 383.83 164.235 383.83 164.235C383.83 164.235 384.97 156.844 375.053 151.49L352.83 139.664C329.629 127.302 332.286 110.654 332.286 110.654C332.286 110.654 331.738 80.5337 371.621 80.5337C371.621 80.5337 389.524 80.993 392.378 83.7783V100.197H392.148Z" fill="white"/>
<path d="M218.142 45.2078C222.097 49.0776 227.616 51.4547 233.642 51.4547C245.783 51.4547 255.61 41.9037 255.61 30.0989C255.61 18.3281 245.783 8.7601 233.642 8.7601C233.642 8.7601 216.73 7.19945 209.118 28.2406L209.144 12.447C214.808 5.23907 223.577 4.93614e-05 233.642 4.93614e-05C250.771 4.93614e-05 264.63 13.4633 264.63 30.0989C264.63 46.709 250.771 60.2232 233.642 60.2232C225.086 60.2232 217.347 56.8681 211.755 51.3952L201.098 39.7477C198.177 36.9113 194.158 35.1848 189.753 35.1848C180.878 35.1848 173.683 42.1588 173.683 50.7743C173.683 59.4238 180.878 66.4148 189.753 66.4148C189.753 66.4148 201.621 67.9627 209.118 53.6617L209.144 66.3085C204.551 71.7261 197.539 75.1833 189.753 75.1833C175.898 75.1833 164.646 64.2546 164.646 50.7743C164.646 37.3195 175.898 26.4163 189.753 26.4163C196.654 26.4163 202.923 29.1123 207.473 33.5604L218.142 45.2078Z" fill="white"/>
<path d="M223.852 92.7493C223.852 88.0333 220.263 83.2025 215.505 82.9601V82.756H251.136V82.9601C246.407 83.2238 242.801 88.0588 242.801 92.7493V180.362C242.801 185.066 246.407 190.126 251.136 190.407V190.607H215.505V190.407C220.263 190.126 223.852 185.066 223.852 180.362V92.7493Z" fill="white"/>
<path d="M201.477 92.9772C201.477 88.2655 205.058 83.2221 209.82 82.9627V82.7543H174.134V82.9627C178.909 83.2221 182.473 88.2655 182.473 92.9772L182.503 202.508C182.503 202.508 182.103 221.848 166.522 232.976L166.56 233.189C169.635 232.687 201.503 226.806 201.503 196.023L201.477 92.9772Z" fill="white"/>
<path d="M251.003 102.163H251.216C256.047 93.7563 263.497 93.6585 263.497 93.6585H282.816L282.829 180.404C282.829 185.099 279.235 190.125 274.477 190.406V190.606H310.21V190.406C305.413 190.125 301.807 185.065 301.807 180.404L301.833 93.6585L317.979 93.6202C322.883 93.6202 326.765 97.4219 326.905 102.163H327.101L333.033 82.7212H256.953L251.003 102.163Z" fill="white"/>
<path d="M428.834 161.623C428.834 172.841 438.189 182.541 449.739 182.541C461.259 182.541 470.657 172.713 470.657 161.491V92.9755C470.657 88.2638 467.068 83.2204 462.313 82.961V82.7569L498 82.7229V82.961C493.267 83.2204 489.661 88.2638 489.661 92.9755V159.552C489.661 180.98 471.886 193.465 449.815 193.465C427.783 193.465 409.821 180.98 409.821 159.552L409.847 92.9755C409.847 88.2638 406.253 83.2204 401.486 82.961V82.7229H437.181V82.961C432.402 83.2459 428.808 88.2936 428.808 92.9755L428.834 161.623Z" fill="white"/>
</svg>
