<svg width="800" height="122" viewBox="0 0 800 122" fill="none" xmlns="http://www.w3.org/2000/svg">
<g clip-path="url(#clip0_102_35)">
<path d="M765.441 119.777H799.99L764.341 2.11995L715.242 2.11795L679.593 119.775H714.152L720.452 97.9956H759.111L765.441 119.775V119.777ZM727.932 71.8332L739.691 31.1832H739.891L751.651 71.8332H727.932Z" fill="white"/>
<path d="M172.486 121.887C207.965 121.887 225.115 115.637 227.545 83.6229C228.125 76.0051 228.235 68.1843 228.235 60.9345C228.245 53.7097 228.125 45.8809 227.545 38.2641C225.115 6.23984 207.965 0 172.486 0C137.007 0 119.867 6.23984 117.447 38.2641C116.857 45.8809 116.737 53.7097 116.737 60.9345C116.747 68.1843 116.857 76.0051 117.447 83.6229C119.867 115.637 137.007 121.887 172.486 121.887ZM150.176 60.9345C150.176 54.4737 150.336 50.6548 150.476 47.8208C151.376 29.6603 158.546 27.5433 172.486 27.5433C186.436 27.5433 193.605 29.6603 194.495 47.8208C194.635 50.6538 194.805 54.4727 194.805 60.9345C194.805 67.4163 194.635 71.2422 194.495 74.0692C193.605 92.2327 186.436 94.3537 172.486 94.3537C158.546 94.3537 151.376 92.2327 150.476 74.0692C150.336 71.2422 150.176 67.4163 150.176 60.9345V60.9345Z" fill="white"/>
<path d="M0.00976562 2.172V31.5023H35.1809V119.827H70.365V31.5023H105.537V2.172H0.00976562Z" fill="white"/>
<path d="M539.846 119.777V2.11795H506.457V119.777H539.846Z" fill="white"/>
<path d="M405.5 45.0759V2.11795H372.301V119.777H405.5V74.4062H444.079V119.777H477.268V2.11795H444.079V45.0759H405.5Z" fill="white"/>
<path d="M649.664 58.2816C664.454 54.5007 668.794 45.6659 668.794 32.8962C668.794 7.03785 652.524 2.11697 629.395 2.11697H569.446V119.774H632.365C661.334 119.774 671.074 107.294 671.074 88.0999C671.074 74.7172 668.014 62.9095 649.664 58.2786V58.2816ZM602.635 71.4473H625.655C634.955 71.4473 636.895 75.5212 636.895 82.147C636.895 88.7788 633.255 92.8637 625.655 92.8637H602.635V71.4473ZM602.635 29.0233H625.655C631.665 29.0233 635.385 31.8742 635.385 38.7311C635.385 44.6089 631.705 48.2268 625.655 48.2268H602.635V29.0233Z" fill="white"/>
<path d="M247.584 81.165H279.233C279.263 86.8729 279.993 90.6878 282.763 92.7947C285.913 95.1687 288.733 95.9527 298.083 95.9527C307.083 95.9527 316.942 95.9527 316.942 84.8679C316.942 76.1261 311.432 74.1312 301.263 73.5892C276.043 72.2532 266.924 71.5403 257.534 64.5644C251.134 59.8075 247.814 50.5468 247.814 38.0231C247.814 16.7266 255.244 9.25579 265.964 4.04291C277.023 -1.33795 320.432 -1.33795 332.112 4.04291C346.802 10.8107 347.232 25.4624 347.232 39.0531H315.662C315.602 32.1242 314.042 30.1673 312.772 28.8783C309.492 25.9704 304.823 25.3564 298.083 25.3564C289.923 25.3564 280.483 25.7244 280.483 35.6331C280.483 43.1929 283.753 46.3529 292.333 46.9089C304.123 47.6628 327.352 48.4058 335.632 53.2917C347.242 60.1585 350.251 69.4503 350.251 84.6099C350.251 106.517 342.412 112.947 331.502 117.767C318.912 123.327 276.863 123.327 263.194 117.337C247.894 110.667 247.584 97.3736 247.584 81.165" fill="white"/>
</g>
<defs>
<clipPath id="clip0_102_35">
<rect width="800" height="121.89" fill="white"/>
</clipPath>
</defs>
</svg>
