<svg width="1000" height="1000" viewBox="0 0 1000 1000" fill="none" xmlns="http://www.w3.org/2000/svg">
<path d="M881.1 340.9C875.3 345.4 772.9 403.1 772.9 531.4C772.9 679.8 903.2 732.3 907.1 733.6C906.5 736.8 886.4 805.5 838.4 875.5C795.6 937.1 750.9 998.6 682.9 998.6C614.9 998.6 597.4 959.1 518.9 959.1C442.4 959.1 415.2 999.9 353 999.9C290.8 999.9 247.4 942.9 197.5 872.9C139.7 790.7 93 663 93 541.8C93 347.4 219.4 244.3 343.8 244.3C409.9 244.3 465 287.7 506.5 287.7C546 287.7 607.6 241.7 682.8 241.7C711.3 241.7 813.7 244.3 881.1 340.9ZM647.1 159.4C678.2 122.5 700.2 71.3 700.2 20.1C700.2 13 699.6 5.8 698.3 0C647.7 1.9 587.5 33.7 551.2 75.8C522.7 108.2 496.1 159.4 496.1 211.3C496.1 219.1 497.4 226.9 498 229.4C501.2 230 506.4 230.7 511.6 230.7C557 230.7 614.1 200.3 647.1 159.4Z" fill="white"/>
</svg>
