<svg width="105" height="16" viewBox="0 0 105 16" fill="none" xmlns="http://www.w3.org/2000/svg">
<g clip-path="url(#clip0_180_1439)">
<path d="M6.937 11.184C7.092 11.547 7.041 12.013 6.963 12.298C6.833 12.79 6.497 13.308 5.513 13.308C4.582 13.308 4.013 12.764 4.013 11.961V10.511H0V11.651C0 14.99 2.614 16 5.436 16C8.128 16 10.354 15.068 10.716 12.583C10.897 11.288 10.768 10.46 10.69 10.123C10.07 6.99 4.4 6.058 3.96 4.323C3.883 4.013 3.909 3.703 3.934 3.547C4.038 3.081 4.374 2.537 5.306 2.537C6.186 2.537 6.704 3.081 6.704 3.883V4.816H10.432V3.754C10.432 0.492 7.507 0 5.384 0C2.718 0 0.569 0.88 0.155 3.314C0.0519997 3.987 0.0249998 4.583 0.181 5.334C0.854 8.362 6.161 9.243 6.937 11.184V11.184ZM55.471 11.159C55.626 11.521 55.574 11.987 55.497 12.246C55.367 12.738 55.031 13.23 54.047 13.23C53.115 13.23 52.572 12.686 52.572 11.883V10.46H48.612V11.599C48.612 14.887 51.2 15.896 53.995 15.896C56.662 15.896 58.862 14.99 59.225 12.505C59.405 11.236 59.275 10.382 59.198 10.071C58.577 6.964 52.96 6.058 52.546 4.324C52.468 4.013 52.494 3.702 52.52 3.547C52.624 3.081 52.934 2.563 53.866 2.563C54.72 2.563 55.238 3.107 55.238 3.909V4.816H58.939V3.78C58.939 0.57 56.04 0.052 53.944 0.052C51.329 0.052 49.181 0.932 48.767 3.34C48.663 3.987 48.637 4.583 48.793 5.333C49.466 8.363 54.72 9.243 55.471 11.159V11.159ZM86.455 12.479L86.248 0.466H89.949V15.223H84.617L80.864 2.822L81.071 15.223H77.395V0.466H82.935L86.455 12.479V12.479ZM19.335 1.553L17.265 15.379H13.227L15.971 0.466H22.623L25.367 15.379H21.355L19.335 1.553V1.553ZM41.131 1.553L38.542 15.38H34.763L32.201 1.553L32.097 15.379H28.37L28.68 0.466H34.763L36.653 12.116L38.543 0.466H44.625L44.962 15.379H41.234L41.131 1.553V1.553ZM67.999 13.153C69.034 13.153 69.371 12.427 69.423 12.065C69.449 11.909 69.449 11.676 69.449 11.495V0.44H73.228V11.16C73.228 11.444 73.202 11.988 73.202 12.143C72.943 14.94 70.742 15.846 67.999 15.846C65.255 15.846 63.055 14.94 62.796 12.143C62.77 11.988 62.744 11.444 62.77 11.16V0.44H66.55V11.495C66.55 11.676 66.55 11.909 66.575 12.065C66.653 12.453 66.964 13.152 67.999 13.152V13.153ZM99.164 12.997C100.251 12.997 100.614 12.297 100.691 11.909C100.717 11.729 100.743 11.521 100.717 11.339V9.165H99.19V6.99H104.47V11.003C104.47 11.288 104.47 11.495 104.419 11.987C104.16 14.706 101.804 15.663 99.164 15.663C96.524 15.663 94.168 14.706 93.91 11.987C93.858 11.495 93.858 11.288 93.858 11.003V4.712C93.858 4.453 93.884 3.987 93.91 3.728C94.246 0.932 96.498 0.052 99.164 0.052C101.804 0.052 104.134 0.932 104.393 3.728C104.445 4.194 104.419 4.712 104.419 4.712V5.204H100.639V4.375C100.639 4.375 100.639 4.013 100.588 3.805C100.51 3.469 100.226 2.718 99.087 2.718C97.999 2.718 97.689 3.443 97.611 3.806C97.559 4.013 97.559 4.272 97.559 4.505V11.34C97.559 11.521 97.559 11.728 97.585 11.91C97.689 12.324 98.077 12.997 99.165 12.997H99.164Z" fill="white"/>
</g>
<defs>
<clipPath id="clip0_180_1439">
<rect width="105" height="16" fill="white"/>
</clipPath>
</defs>
</svg>
