<svg width="538" height="107" viewBox="0 0 538 107" fill="none" xmlns="http://www.w3.org/2000/svg">
<g clip-path="url(#clip0_179_1393)">
<path d="M514.3 13.5C514.3 7.4 519.2 2.4 525.2 2.4C528.1 2.4 530.8 3.6 532.9 5.6C535 7.7 536.1 10.5 536.1 13.4C536.1 16.3 535 19.1 532.9 21.2C530.8 23.3 528.1 24.5 525.2 24.5C519.2 24.5 514.3 19.6 514.3 13.5ZM513.4 13.5C513.4 20.1 518.7 25.5 525.3 25.5C528.5 25.5 531.4 24.3 533.6 22C535.8 19.7 537.1 16.7 537.1 13.5C537.1 10.3 535.9 7.3 533.6 5C531.3 2.7 528.4 1.5 525.3 1.5C518.7 1.5 513.4 6.9 513.4 13.5ZM520.8 20.6H522.5V15H526.3C526.9 15 527.4 15 527.8 15.2C528.3 15.5 528.6 16.1 528.7 16.9L528.9 19.1C528.9 19.6 528.9 19.9 528.9 20.1C529 20.3 529 20.4 529.1 20.5H531.2V20.2C530.9 20.1 530.8 19.8 530.7 19.4C530.6 19.2 530.6 18.8 530.6 18.3L530.5 16.6C530.5 15.8 530.3 15.3 530.1 15C529.8 14.7 529.4 14.4 528.9 14.2C529.5 13.9 529.9 13.5 530.2 13C530.5 12.5 530.6 11.9 530.6 11.1C530.6 9.6 530 8.6 528.9 8C528.3 7.7 527.5 7.6 526.6 7.6H520.9L520.8 20.6ZM522.4 13.5V9H526.4C527 9 527.5 9.1 527.8 9.3C528.4 9.6 528.7 10.3 528.7 11.2C528.7 12.1 528.5 12.7 528 13C527.6 13.3 527 13.5 526.2 13.5H522.4V13.5ZM48.6 30L0 106.4H33.2L80 33.4L48.6 30ZM248.7 28.3V0H154.2C141.3 0.8 135.7 7 131.5 11.4C127 16.1 124.5 26 124.5 26V0.2H74.2C70.4 0.2 66.8 1.8 64.1 5.6C61.3 9.3 49.8 28.3 49.8 28.3H248.7ZM505.7 28.3V0H404.6C391.8 0.8 386.1 7 381.9 11.4C377.4 16.1 374.9 26 374.9 26V28.3H505.7ZM281.9 0.1H253.6V28.3H281.9V0.1ZM374.6 0.1H346.4V28.3H374.6V0.1ZM374.6 38.5L346.8 36.8V69.5C346.8 69.5 346.7 78.9 337.6 78.9H290C290 78.9 281.9 78.2 281.9 69.6V32.4L253.9 30.4V80.5C258.4 104.5 280.1 106.4 280.1 106.4C280.1 106.4 282.3 106.5 282.7 106.6H347.2C347.2 106.6 374.8 104.4 374.8 77.8L374.6 38.5ZM95.7 106.4H227.9C250.9 101.8 253.3 80.8 253.3 80.8C254.4 74.6 253.8 69.5 253.8 69.5C253.1 65.3 245.1 46.7 227.9 45.1C217.6 44.1 125.9 36.8 125.9 36.8C127.7 46 131.8 50.7 134.6 53.3C141 59.4 151.1 61.2 151.1 61.2C153.5 61.4 221.8 67.1 221.8 67.1C224 67.2 228.1 67.8 228 73.2C228 73.9 227.4 78.6 222.2 78.6H123.3V36.6L95.8 34.6C95.7 34.6 95.7 106.4 95.7 106.4ZM374.8 106.6H476C501.4 105.1 505 81 505 81C505.9 74.7 505.2 69.5 505.2 69.5C504.5 63.8 496.4 46.6 479.1 44.9C468.9 43.9 376.6 38.5 376.6 38.5C379.3 48 383 50.9 385.8 53.5C392.2 59.7 401.7 61.1 401.7 61.1C404.1 61.3 473.1 67.1 473.1 67.1C475.3 67.2 479.8 67.4 479.8 72.8C479.8 74.4 479 76.1 478 77C478 77 475.6 78.3 473.3 78.3H375.1L374.8 106.6Z" fill="white"/>
</g>
<defs>
<clipPath id="clip0_179_1393">
<rect width="537.1" height="106.6" fill="white"/>
</clipPath>
</defs>
</svg>
