<svg width="498" height="88" viewBox="0 0 498 88" fill="none" xmlns="http://www.w3.org/2000/svg">
<path d="M177.416 87.677C159.376 87.677 142.63 82.267 131.452 72.234C123.007 64.654 118.949 54.358 118.949 43.761C118.949 33.293 123.182 22.926 131.451 15.386C141.832 5.925 160.16 0 177.416 0C196.512 0 211.796 4.81 223.48 15.412C231.793 22.956 235.812 33.277 235.812 43.762C235.812 53.925 231.547 64.748 223.48 72.234C212.6 82.332 195.502 87.677 177.416 87.677V76.113C186.991 76.113 195.873 72.807 202.076 66.635C208.236 60.505 211.106 52.97 211.106 43.761C211.106 34.939 208.01 26.691 202.076 20.841C195.956 14.813 186.862 11.421 177.416 11.421C167.941 11.421 158.841 14.778 152.716 20.841C146.814 26.689 143.71 34.961 143.71 43.761C143.71 52.534 146.85 60.801 152.716 66.636C158.846 72.734 167.914 76.114 177.416 76.114V87.678V87.677ZM45.562 0.0420001C35.912 0.0420001 24.949 1.847 15.634 6.007C7.037 9.843 2.03747e-06 16.047 2.03747e-06 26.332C-0.00399796 35.595 5.883 41.02 5.723 40.87C8.227 43.175 12.258 47.1 22.797 49.405C27.507 50.435 37.577 52.017 47.605 53.065C57.559 54.115 67.355 55.113 71.345 56.123C74.515 56.93 79.84 58.029 79.84 64.003C79.84 69.953 74.23 71.769 73.255 72.163C72.281 72.548 65.551 75.636 53.453 75.636C44.521 75.636 33.783 72.95 29.869 71.55C25.357 69.944 20.624 67.82 16.209 62.427C15.111 61.09 13.379 57.413 13.379 53.772H2.43V84.452H14.6V80.307C14.6 79.835 15.19 77.894 17.233 78.817C19.775 79.972 27.237 82.943 35.039 84.572C41.436 85.91 45.561 86.869 53.514 86.869C66.49 86.869 73.461 84.755 78.28 83.379C82.82 82.079 88.43 79.745 92.987 76.111C95.455 74.146 100.867 69.109 100.867 59.966C100.867 51.19 96.157 45.743 94.5 44.086C92.243 41.828 89.486 40.078 86.613 38.729C84.11 37.551 80.16 36.136 76.928 35.345C70.655 33.805 56.471 31.905 49.688 31.195C42.575 30.452 30.236 29.43 25.308 27.905C23.814 27.442 20.768 25.991 20.768 22.455C20.768 19.94 22.161 17.808 24.914 16.085C29.284 13.347 38.111 11.645 47.312 11.645C58.19 11.605 67.402 14.092 73.262 16.712C75.255 17.602 77.587 18.88 79.439 20.392C81.529 22.096 84.463 25.637 85.524 30.576H95.354V3.87H84.378V6.974C84.378 7.976 83.343 9.278 81.386 8.202C76.474 5.625 62.586 0.0650001 45.56 0.0420001H45.562ZM286.096 4.895L339.638 53.215L339.088 20.682C339.034 16.416 338.248 14.635 333.634 14.635H323.567V4.903H369.347V14.635H359.527C354.821 14.635 354.524 16.14 354.467 20.682L355.297 82.845H339.619L277.949 27.805L277.962 66.867C278.016 71.113 278.215 73.113 282.59 73.113H293.585V82.841H248.625V73.114H259.135C263.061 73.114 262.905 69.371 262.905 66.646V21.052C262.905 18.109 262.492 14.642 256.328 14.642H247.8V4.895H286.096ZM421.66 73.095C422.09 73.095 424 73.04 424.37 72.927C425.427 72.597 426.144 71.843 426.476 71.057C426.616 70.727 426.686 69.267 426.686 68.95L426.694 53.57C426.694 53.2 426.667 53.04 426.039 52.216C425.349 51.316 397.994 20.316 396.742 18.951C395.187 17.256 392.457 14.636 388.309 14.636H378.796V4.9H432.483V14.624H426.011C424.514 14.624 423.519 16.044 424.798 17.622C424.798 17.622 442.861 39.229 443.032 39.455C443.2 39.685 443.344 39.74 443.574 39.53C443.8 39.315 462.09 17.82 462.234 17.65C463.104 16.608 462.514 14.635 460.639 14.635H454V4.9H498V14.635H488.17C484.604 14.635 483.153 15.295 480.47 18.328C479.243 19.716 451.596 51.273 450.844 52.128C450.45 52.575 450.484 53.198 450.484 53.568V68.946C450.484 69.258 450.554 70.72 450.694 71.048C451.027 71.838 451.748 72.592 452.804 72.918C453.174 73.032 455.058 73.088 455.487 73.088H465.542V82.822H412.132V73.087L421.662 73.095H421.66Z" fill="white"/>
</svg>
