<svg width="100" height="50" viewBox="0 0 100 50" fill="none" xmlns="http://www.w3.org/2000/svg">
<path d="M92.5 15.8C92.2 15.4 91.9 15.1 90.4 15C90 15 88.8 14.9 86.7 14.9C81.2 14.9 77.4 16.6 75.5 19.9C76 16.6 72.8 14.9 65.8 14.9C57.6 14.9 52.4 18.2 50.3 24.9C49.5 27.4 49.5 29.4 50.1 31H48.1C46.6 31.1 44.6 31.2 43.3 31.2C40.3 31.2 38.4 30.7 37.7 29.7C37.1 28.8 37.1 27.1 37.9 24.6C39.2 20.5 42.3 18.7 47.3 18.7C49.9 18.7 52.4 19 52.4 19C52.7 19 52.9 18.6 52.9 18.3L52.8 18L52.6 16.6C52.5 15.7 51.8 15.2 50.6 15C49.5 14.9 48.6 14.9 47.4 14.9C47.4 14.9 47.4 14.9 47.3 14.9C40.8 14.9 36.2 17.1 33.7 21.3C34.6 17 31.6 14.9 24.7 14.9C20.8 14.9 18 15 16.4 15.2C15.1 15.4 14.3 15.9 14 16.8L13.4 18.6C13.3 18.9 13.5 19.1 13.9 19.1C14.2 19.1 15.4 18.9 17.4 18.8C20.1 18.6 22 18.5 23.3 18.5C27.1 18.5 28.8 19.5 28.2 21.4C28.1 21.8 27.8 22.1 27.3 22.2C23.7 22.8 20.8 23.2 18.7 23.5C12.7 24.3 9.19998 26.1 8.29998 29.1C6.99998 33.2 10.2 35.2 17.9 35.2C21.7 35.2 25 35 27.6 34.5C29.1 34.2 29.9 33.9 30.2 32.9L31.6 28.3C31.5 32.9 34.6 35.2 41.2 35.2C44 35.2 46.7 35.1 48 34.9C49.3 34.7 50 34.4 50.3 33.4L50.6 32C52 34.2 55.1 35.3 59.8 35.3C64.8 35.3 67.7 35.2 68.5 34.9C69.2 34.7 69.6 34.3 69.8 33.8C69.8 33.7 69.8 33.6 69.9 33.5L70.5 31.6C70.6 31.3 70.4 31.1 70 31.1L66.8 31.3C64.7 31.4 63 31.5 61.8 31.5C59.5 31.5 58 31.3 57.1 31C55.8 30.5 55.2 29.6 55.3 28.1L65.4 26.8C69.9 26.2 73 24.8 74.5 22.6L71 34.3C70.9 34.5 71 34.7 71.1 34.8C71.2 34.9 71.4 35 71.8 35H76C76.7 35 77 34.6 77.1 34.3L80.8 21.4C81.3 19.7 82.8 18.9 85.6 18.9C88.1 18.9 89.9 18.9 91.1 19H91.2C91.4 19 91.8 18.9 92.1 18.4L92.7 16.6C92.7 16.3 92.7 16 92.5 15.8ZM25.1 31.2C23.8 31.4 21.9 31.5 19.5 31.5C15.2 31.5 13.4 30.6 13.9 28.9C14.3 27.7 15.4 26.9 17.2 26.7L26.9 25.4L25.1 31.2ZM69.8 20.8C69.4 22.1 67.5 23 64.1 23.5L56 24.6L56.2 23.9C56.9 21.7 57.8 20.3 59 19.5C60.2 18.7 62.2 18.3 65 18.3C68.7 18.4 70.3 19.2 69.8 20.8Z" fill="white"/>
</svg>
