<svg width="60" height="60" viewBox="0 0 60 60" fill="none" xmlns="http://www.w3.org/2000/svg">
<path d="M30.0018 3.42064C22.6647 3.42064 16.0201 6.3967 11.2093 11.2112C6.3967 16.0146 3.42247 22.6629 3.42247 30.0037C3.42247 37.3389 6.3967 43.9826 11.2093 48.7879C16.0201 53.596 22.6647 56.5775 30.0018 56.5775C37.3408 56.5775 43.9891 53.596 48.7925 48.7879C53.6033 43.9826 56.5711 37.3389 56.5711 30.0037C56.5711 22.6629 53.6033 16.0146 48.7925 11.2112C43.9891 6.3967 37.3408 3.42064 30.0018 3.42064ZM30.0018 0.200002C46.4577 0.200002 59.8 13.5442 59.8 30.0037C59.8 46.4576 46.4577 59.8 30.0018 59.8C13.5479 59.8 0.200012 46.4576 0.200012 30.0037C0.200012 13.5442 13.5479 0.200002 30.0018 0.200002" fill="white"/>
<path d="M15.9078 29.7608C15.9078 28.0241 14.7555 27.0376 13.1241 27.0376H12.1257V32.4859H13.0957C14.6126 32.4859 15.9078 31.6615 15.9078 29.7608ZM33.668 31.7211L26.3126 37.5129L19.5901 32.2203C18.62 34.5506 16.276 36.1691 13.5766 36.1691H7.82324V23.3526H13.5766C16.593 23.3526 18.7666 25.2706 19.5883 27.3142L26.3126 22.0271L28.8031 23.9873L22.6403 28.8311L23.8247 29.7581L29.9857 24.9171L32.4799 26.8718L26.3181 31.7211L27.5006 32.6499L33.668 27.7997V23.3526H38.1389V32.4282H42.5989V36.1847H33.668V31.7211V31.7211ZM48.2625 32.4301H52.7206V36.1847H43.7869V23.3526H48.2625V32.4301V32.4301Z" fill="white"/>
</svg>
