<svg width="24" height="24" viewBox="0 0 24 24" fill="none" xmlns="http://www.w3.org/2000/svg">
<g clip-path="url(#clip0_243_1420)">
<path d="M19 0H5C3.6744 0.00158786 2.40356 0.528882 1.46622 1.46622C0.528882 2.40356 0.00158786 3.6744 0 5L0 19C0.00158786 20.3256 0.528882 21.5964 1.46622 22.5338C2.40356 23.4711 3.6744 23.9984 5 24H19C20.3256 23.9984 21.5964 23.4711 22.5338 22.5338C23.4711 21.5964 23.9984 20.3256 24 19V5C23.9984 3.6744 23.4711 2.40356 22.5338 1.46622C21.5964 0.528882 20.3256 0.00158786 19 0V0ZM22 19C22 19.7956 21.6839 20.5587 21.1213 21.1213C20.5587 21.6839 19.7956 22 19 22H5C4.20435 22 3.44129 21.6839 2.87868 21.1213C2.31607 20.5587 2 19.7956 2 19V5C2 4.20435 2.31607 3.44129 2.87868 2.87868C3.44129 2.31607 4.20435 2 5 2H19C19.7956 2 20.5587 2.31607 21.1213 2.87868C21.6839 3.44129 22 4.20435 22 5V19Z" fill="white"/>
<path d="M18.0001 5.99998C17.8125 5.81251 17.5582 5.70719 17.2931 5.70719C17.0279 5.70719 16.7736 5.81251 16.5861 5.99998L12.0001 10.586L7.41406 5.99998C7.22653 5.81251 6.97223 5.70719 6.70706 5.70719C6.4419 5.70719 6.18759 5.81251 6.00006 5.99998C5.81259 6.18751 5.70728 6.44181 5.70728 6.70698C5.70728 6.97214 5.81259 7.22645 6.00006 7.41398L10.5861 12L6.00006 16.586C5.81259 16.7735 5.70728 17.0278 5.70728 17.293C5.70728 17.5581 5.81259 17.8125 6.00006 18C6.18759 18.1875 6.4419 18.2928 6.70706 18.2928C6.97223 18.2928 7.22653 18.1875 7.41406 18L12.0001 13.414L16.5861 18C16.7736 18.1875 17.0279 18.2928 17.2931 18.2928C17.5582 18.2928 17.8125 18.1875 18.0001 18C18.1875 17.8125 18.2928 17.5581 18.2928 17.293C18.2928 17.0278 18.1875 16.7735 18.0001 16.586L13.4141 12L18.0001 7.41398C18.1875 7.22645 18.2928 6.97214 18.2928 6.70698C18.2928 6.44181 18.1875 6.18751 18.0001 5.99998V5.99998Z" fill="white"/>
</g>
<defs>
<clipPath id="clip0_243_1420">
<rect width="24" height="24" fill="white"/>
</clipPath>
</defs>
</svg>
