<svg width="60" height="60" viewBox="0 0 60 60" fill="none" xmlns="http://www.w3.org/2000/svg">
<path d="M44.3633 27.4733C39.0935 27.7532 33.9279 25.931 30 22.4067C26.0721 25.931 20.9065 27.7532 15.6367 27.4733C15.2126 29.1152 14.9986 30.8043 15 32.5C15 41.8183 21.3733 49.65 30 51.87C38.6267 49.65 45 41.82 45 32.5C45 30.7633 44.7783 29.08 44.3633 27.4733Z" stroke="#B291E0" stroke-width="2" stroke-linecap="round" stroke-linejoin="round"/>
<path d="M33.4254 37.2569H36.6961V43.5332C35.8564 44.1667 34.884 44.6529 33.779 44.9917C32.674 45.3306 31.5617 45.5 30.442 45.5C28.8361 45.5 27.3923 45.1612 26.1105 44.4834C24.8287 43.791 23.8195 42.8407 23.0829 41.6326C22.361 40.4098 22 39.0322 22 37.5C22 35.9678 22.361 34.5976 23.0829 33.3895C23.8195 32.1667 24.8361 31.2164 26.1326 30.5387C27.4291 29.8462 28.8877 29.5 30.5083 29.5C31.8637 29.5 33.0939 29.7284 34.1989 30.1851C35.3039 30.6418 36.232 31.3048 36.9834 32.174L34.6851 34.2956C33.5801 33.1317 32.2468 32.5497 30.6851 32.5497C29.698 32.5497 28.8214 32.756 28.0552 33.1685C27.2891 33.581 26.6924 34.163 26.2652 34.9144C25.8379 35.6658 25.6243 36.5276 25.6243 37.5C25.6243 38.4577 25.8379 39.3122 26.2652 40.0635C26.6924 40.8149 27.2818 41.4042 28.0331 41.8315C28.7993 42.244 29.6685 42.4503 30.6409 42.4503C31.6722 42.4503 32.6004 42.2293 33.4254 41.7873V37.2569Z" fill="#B291E0"/>
<path d="M16 26.5V13.2361C16 11.2528 17.1205 9.43973 18.8944 8.55279C19.6215 8.18926 20.4232 8 21.2361 8H38.7639C39.5768 8 40.3785 8.18926 41.1056 8.55279C42.8795 9.43973 44 11.2528 44 13.2361V26.5" stroke="#B291E0"/>
<path d="M19 13.5C20.15 12.5945 21.3958 13.1227 21.875 13.5C22.3542 13.8773 23.6 14.4055 24.75 13.5C25.9 12.5945 27.1458 13.1227 27.625 13.5C28.1042 13.8773 29.35 14.4055 30.5 13.5C31.65 12.5945 32.8958 13.1227 33.375 13.5C33.8542 13.8773 35.1 14.4055 36.25 13.5C37.4 12.5945 38.6458 13.1227 39.125 13.5C39.6042 13.8773 40.85 14.4055 42 13.5" stroke="#B291E0"/>
<path d="M19 17.5C20.15 16.5945 21.3958 17.1227 21.875 17.5C22.3542 17.8773 23.6 18.4055 24.75 17.5C25.9 16.5945 27.1458 17.1227 27.625 17.5C28.1042 17.8773 29.35 18.4055 30.5 17.5C31.65 16.5945 32.8958 17.1227 33.375 17.5C33.8542 17.8773 35.1 18.4055 36.25 17.5C37.4 16.5945 38.6458 17.1227 39.125 17.5C39.6042 17.8773 40.85 18.4055 42 17.5" stroke="#B291E0"/>
<path d="M19 21.5C20.15 20.5945 21.3958 21.1227 21.875 21.5C22.3542 21.8773 23.6 22.4055 24.75 21.5C25.9 20.5945 27.1458 21.1227 27.625 21.5C28.1042 21.8773 29.35 22.4055 30.5 21.5C31.65 20.5945 32.8958 21.1227 33.375 21.5C33.8542 21.8773 35.1 22.4055 36.25 21.5C37.4 20.5945 38.6458 21.1227 39.125 21.5C39.6042 21.8773 40.85 22.4055 42 21.5" stroke="#B291E0"/>
</svg>
